<?xml version="1.0" encoding="UTF-8"?>
<svg id="Ebene_1" data-name="Ebene 1" xmlns="http://www.w3.org/2000/svg" viewBox="0 0 1000 1000">
  <defs>
    <style>
      .cls-1 {
        fill: none;
        stroke: #fff;
        stroke-miterlimit: 10;
        stroke-width: 30px;
      }

      .cls-2 {
        fill: #fff;
        stroke-width: 0px;
      }
    </style>
  </defs>
  <circle class="cls-1" cx="500" cy="500" r="479"/>
  <path class="cls-2" d="M282.79,275.27l-.13.23s12.51,21.67,31.53,54.61c1.01-1.11,1.75-2.56,2.1-4.58.42-2.35,2.39-5,4.43-6.39,5.78-3.93,7.72-9.42,7.65-15.91-.08-8.31-.12-16.64-.5-24.94-.58-1.01-1.16-2.01-1.74-3.02h-43.34Z"/>
  <path class="cls-2" d="M613.14,235.62c2.48,3.87,5.2,5.95,9.76,6.79,10.06,1.85,20.52,3.45,28.64,10.19,1.4,1.16,2.72,2.44,3.97,3.8h8.85l21.53-37.77h-85.89c5.01,5.02,9.24,10.91,13.14,16.99Z"/>
  <polygon class="cls-2" points="500.61 492.07 511.45 473.19 489.77 473.19 500.61 492.07"/>
  <polygon class="cls-2" points="511.13 431.93 489.45 431.93 500.61 450.81 511.13 431.93"/>
  <path class="cls-2" d="M662.25,316.27c-.05,4.06,1.33,7.39,4.32,10.1,4.53,4.12,8.49,8.5,9.45,15,.13.9,1.62,1.87,3.01,2.45l72.28-125.19h-43.33c-15.22,26.35-30.46,52.75-45.72,79.18-.09,6.15.07,12.31,0,18.47Z"/>
  <path class="cls-2" d="M387.52,218.62h212.49c-4.61-4.62-9.89-8.52-16.21-11.15-7.02-2.91-14.07-5.76-21.19-8.44h-141.19c-6.89,2.6-13.66,5.47-20.11,8.9-5.27,2.8-9.77,6.48-13.8,10.68Z"/>
  <path class="cls-2" d="M679.02,343.82l-145.76,252.46s-21.67-37.53-21.67-37.53c50.07-86.72,100.44-173.97,150.65-260.94.02-1.28.03-2.57.08-3.85.14-3.85.8-7.77,1.85-11.48,1.51-5.34,2.43-10.81-.63-15.51-2.39-3.67-5.03-7.35-8.03-10.58h-322.16c-3.92,5.08-6.06,11.54-5.65,18.26.07,1.21.12,2.42.17,3.64,64.71,112.07,129.93,225.05,194.63,337.1l-21.67,37.53h-.27s-126-218.24-186.38-322.81c-1.61,1.77-3.93,2.68-6.59,3.62-3.84,1.37-7.33,3.08-10.46,5.14,67.63,117.13,135.33,234.4,202.85,351.35,65.2-112.92,130.56-226.14,195.87-339.25-4.71-3.12-10.1-5.21-15.79-6.78-.32-.09-.68-.22-1.05-.37ZM424.38,407.69l65.55-.24c.18-.3,10.72-18.58,10.9-18.88h-87.5s-65.27-113.06-65.27-113.06h305.25s-21.67,37.53-21.67,37.53h-218.31c5.57,9.66,22.08,37.77,22.08,37.77,0,0,130.68.23,130.68.23,0,0-32.57,56.42-32.57,56.42h43.33l-76.31,132.18s-76.17-131.94-76.17-131.94Z"/>
  <path class="cls-2" d="M823.17,516.22c-.73-1.35-.94-3.14-.91-4.72.22-8.93,1.82-18.01.69-26.75-5.03-39.2-21.29-72.86-52.47-98.02-16.07-12.97-34.45-18.71-55.15-12.31-2.59.8-3.33-.25-4.23-2.43-.76-1.85-1.53-3.72-2.36-5.56-79.93,138.45-182.76,316.56-197.71,342.44h-22.07c-68.15-118.03-136.48-236.39-204.74-354.62-.98,2.34-1.74,4.86-2.26,7.58-.77,4-.12,8.27-.12,12.54.08-.03-.18.13-.43.12-.42-.02-.84-.11-1.24-.22-22.64-6.39-41.43.84-57.62,16.61-20.78,20.24-33.17,45.05-38.67,73.32-2.98,15.31-3.68,30.71,2.29,45.62,1.15,2.87.84,4.87-1.1,7.24-6.93,8.46-11.9,18.1-15.2,28.45-11.96,37.5-10.92,74.97,1.57,112.11,5.57,16.54,13.73,31.75,27.71,42.92,8.22,6.57,17.4,10.62,28.43,8.9,10.56-1.65,18.78-6.98,25.47-15.04,2.02-2.44,4.02-4.9,6.02-7.35,5.5,4.8,5.9,6.26,3.44,12.16-7.46,17.92-13.58,36.26-17.96,55.19-.65,2.82-2.34,5.74-4.35,7.85-12.1,12.77-10.77,29.33,3.02,40.33,20.07,16,60.28,15.55,77.22-8.46,3.53,2.75,6.61,5.67,10.17,7.81,11.33,6.8,23.68,9.08,36.8,7.55,14.87-1.73,27.67-7.11,36.04-20.3,1.27-2,2.6-2.6,4.87-1.92,18.89,5.62,38.16,9.36,57.8,10.9,12.16.95,24.37,1.95,36.54,1.72,23.87-.45,47.61-2.66,70.89-8.38,2.45-.6,3.57.2,4.27,2.58,3.17,10.79,10.9,17.11,20.71,21.87,8.8,4.27,17.99,3.37,27.2,3.83,9.86.5,18.89-1.54,27.4-6.48,1-.58,2.85-.7,3.83-.17,10.33,5.64,21.37,6.92,32.97,6.66,9.46-.21,18.01-2.77,25.96-7.41,12.6-7.36,20.77-20.62,13.03-36.74-.72-1.5-1.04-3.2-1.55-4.81-5.03-15.77-9.93-31.57-15.18-47.26-1.11-3.32-.49-5.28,1.7-7.82,8.76-10.21,17.23-20.66,25.8-31.03,1.46-1.77,2.84-3.6,4.43-5.62,2.74,3.08,4.96,5.79,7.4,8.27,7.49,7.62,16.37,12.17,27.3,11.96,15.02-.3,25.4-8.89,34.1-19.82,12.16-15.26,18.44-33.24,22.87-51.99,3.76-15.93,2.14-32.13,2.66-48.23.71-22.47-4.68-43.37-15.29-63.06Z"/>
  <path class="cls-2" d="M298.15,338.88c-26.93-46.64-53.85-93.27-80.74-139.84h205.01c4.55-1.72,9.14-3.32,13.73-4.88,15.16-5.16,30.8-8.49,46.77-10.35,13.32-1.55,26.28.13,39.26,2.8,14.21,2.93,27.93,7.36,41.42,12.43h220.98l-.14.24c-29.17,50.52-58.37,101.1-87.58,151.7,3.55,2.35,6.72,5.28,9.33,9.02,1.39,1.99,2.53,4.18,3.55,6.43,53.35-92.41,96.5-167.15,96.5-167.15,0,0-10.72-18.54-11.04-19.11H206.79c-.31.53-11.04,19.12-11.04,19.12,29.79,51.61,59.62,103.28,89.47,154.97,2.73-6.53,7.18-11.57,12.93-15.38Z"/>
  <path class="cls-2" d="M348.42,246.68c6.57-1.49,13.19-2.8,19.62-4.75,2.11-.64,4.18-2.73,5.43-4.68,4.23-6.59,8.7-13.07,14.03-18.63h-137.42l-.14.24s21.67,37.53,21.67,37.53h61.73c3.67-4.76,8.88-8.31,15.07-9.71Z"/>
</svg>